{
	"asset":{
		"generator":"Khronos glTF Blender I/O v4.5.48",
		"version":"2.0"
	},
	"scene":0,
	"scenes":[
		{
			"name":"Scene",
			"nodes":[
				0
			]
		}
	],
	"nodes":[
		{
			"mesh":0,
			"name":"env_assets_2_mesh",
			"rotation":[
				0.7071068286895752,
				0,
				0,
				0.7071068286895752
			],
			"scale":[
				0.009999999776482582,
				0.009999999776482582,
				0.009999999776482582
			]
		}
	],
	"materials":[
		{
			"doubleSided":true,
			"name":"env_assets_02_mat",
			"pbrMetallicRoughness":{
				"baseColorTexture":{
					"index":0
				},
				"metallicFactor":0,
				"roughnessFactor":0.5
			}
		}
	],
	"meshes":[
		{
			"name":"Mesh",
			"primitives":[
				{
					"attributes":{
						"POSITION":0,
						"NORMAL":1,
						"TEXCOORD_0":2
					},
					"indices":3,
					"material":0
				}
			]
		}
	],
	"textures":[
		{
			"sampler":0,
			"source":0
		}
	],
	"images":[
		{
			"mimeType":"image/png",
			"name":"env_assets_02_colour",
			"uri":"env_assets_02_colour.png"
		}
	],
	"accessors":[
		{
			"bufferView":0,
			"componentType":5126,
			"count":2188,
			"max":[
				484.8326721191406,
				959.509521484375,
				48.132423400878906
			],
			"min":[
				-838.011474609375,
				-516.2754516601562,
				-203.763427734375
			],
			"type":"VEC3"
		},
		{
			"bufferView":1,
			"componentType":5126,
			"count":2188,
			"type":"VEC3"
		},
		{
			"bufferView":2,
			"componentType":5126,
			"count":2188,
			"type":"VEC2"
		},
		{
			"bufferView":3,
			"componentType":5123,
			"count":6336,
			"type":"SCALAR"
		}
	],
	"bufferViews":[
		{
			"buffer":0,
			"byteLength":26256,
			"byteOffset":0,
			"target":34962
		},
		{
			"buffer":0,
			"byteLength":26256,
			"byteOffset":26256,
			"target":34962
		},
		{
			"buffer":0,
			"byteLength":17504,
			"byteOffset":52512,
			"target":34962
		},
		{
			"buffer":0,
			"byteLength":12672,
			"byteOffset":70016,
			"target":34963
		}
	],
	"samplers":[
		{
			"magFilter":9729,
			"minFilter":9987
		}
	],
	"buffers":[
		{
			"byteLength":82688,
			"uri":"env_assets_02_mesh.bin"
		}
	]
}
