{
	"asset":{
		"generator":"Khronos glTF Blender I/O v4.5.48",
		"version":"2.0"
	},
	"scene":0,
	"scenes":[
		{
			"name":"Scene",
			"nodes":[
				0
			]
		}
	],
	"nodes":[
		{
			"mesh":0,
			"name":"fan_mesh"
		}
	],
	"materials":[
		{
			"doubleSided":true,
			"name":"fan_mat",
			"pbrMetallicRoughness":{
				"baseColorTexture":{
					"index":0
				},
				"metallicFactor":0,
				"roughnessFactor":0.5527864098548889
			}
		}
	],
	"meshes":[
		{
			"name":"Mesh",
			"primitives":[
				{
					"attributes":{
						"POSITION":0,
						"NORMAL":1,
						"TEXCOORD_0":2
					},
					"indices":3,
					"material":0
				}
			]
		}
	],
	"textures":[
		{
			"sampler":0,
			"source":0
		}
	],
	"images":[
		{
			"mimeType":"image/png",
			"name":"fan_colour",
			"uri":"fan_colour.png"
		}
	],
	"accessors":[
		{
			"bufferView":0,
			"componentType":5126,
			"count":302,
			"max":[
				0.25895199179649353,
				0.023687293753027916,
				0.7759571671485901
			],
			"min":[
				-0.2589520812034607,
				-0.02368721179664135,
				-0.14982318878173828
			],
			"type":"VEC3"
		},
		{
			"bufferView":1,
			"componentType":5126,
			"count":302,
			"type":"VEC3"
		},
		{
			"bufferView":2,
			"componentType":5126,
			"count":302,
			"type":"VEC2"
		},
		{
			"bufferView":3,
			"componentType":5123,
			"count":840,
			"type":"SCALAR"
		}
	],
	"bufferViews":[
		{
			"buffer":0,
			"byteLength":3624,
			"byteOffset":0,
			"target":34962
		},
		{
			"buffer":0,
			"byteLength":3624,
			"byteOffset":3624,
			"target":34962
		},
		{
			"buffer":0,
			"byteLength":2416,
			"byteOffset":7248,
			"target":34962
		},
		{
			"buffer":0,
			"byteLength":1680,
			"byteOffset":9664,
			"target":34963
		}
	],
	"samplers":[
		{
			"magFilter":9729,
			"minFilter":9987
		}
	],
	"buffers":[
		{
			"byteLength":11344,
			"uri":"fan_mesh.bin"
		}
	]
}
