{
	"asset":{
		"generator":"Khronos glTF Blender I/O v4.5.48",
		"version":"2.0"
	},
	"scene":0,
	"scenes":[
		{
			"name":"Scene",
			"nodes":[
				0
			]
		}
	],
	"nodes":[
		{
			"mesh":0,
			"name":"trees_env_mesh"
		}
	],
	"materials":[
		{
			"doubleSided":true,
			"name":"trees_mat",
			"pbrMetallicRoughness":{
				"baseColorTexture":{
					"index":0
				},
				"metallicFactor":0,
				"roughnessFactor":0.5
			}
		}
	],
	"meshes":[
		{
			"name":"Mesh.002",
			"primitives":[
				{
					"attributes":{
						"POSITION":0,
						"NORMAL":1,
						"TEXCOORD_0":2
					},
					"indices":3,
					"material":0
				}
			]
		}
	],
	"textures":[
		{
			"sampler":0,
			"source":0
		}
	],
	"images":[
		{
			"mimeType":"image/png",
			"name":"trees_colour",
			"uri":"trees_colour.png"
		}
	],
	"accessors":[
		{
			"bufferView":0,
			"componentType":5126,
			"count":5195,
			"max":[
				7.794279098510742,
				4.409236907958984,
				10.874348640441895
			],
			"min":[
				-8.77916145324707,
				-0.12394213676452637,
				-7.197302341461182
			],
			"type":"VEC3"
		},
		{
			"bufferView":1,
			"componentType":5126,
			"count":5195,
			"type":"VEC3"
		},
		{
			"bufferView":2,
			"componentType":5126,
			"count":5195,
			"type":"VEC2"
		},
		{
			"bufferView":3,
			"componentType":5123,
			"count":22302,
			"type":"SCALAR"
		}
	],
	"bufferViews":[
		{
			"buffer":0,
			"byteLength":62340,
			"byteOffset":0,
			"target":34962
		},
		{
			"buffer":0,
			"byteLength":62340,
			"byteOffset":62340,
			"target":34962
		},
		{
			"buffer":0,
			"byteLength":41560,
			"byteOffset":124680,
			"target":34962
		},
		{
			"buffer":0,
			"byteLength":44604,
			"byteOffset":166240,
			"target":34963
		}
	],
	"samplers":[
		{
			"magFilter":9729,
			"minFilter":9987
		}
	],
	"buffers":[
		{
			"byteLength":210844,
			"uri":"trees_env.bin"
		}
	]
}
